<?xml version="1.0" standalone="no"?><!DOCTYPE svg PUBLIC "-//W3C//DTD SVG 1.1//EN" "http://www.w3.org/Graphics/SVG/1.1/DTD/svg11.dtd"><svg t="1487671491075" class="icon" style="" viewBox="0 0 1024 1024" version="1.1" xmlns="http://www.w3.org/2000/svg" p-id="2776" xmlns:xlink="http://www.w3.org/1999/xlink" width="200" height="200"><defs><style type="text/css"></style></defs><path d="M825.3696 608.64l145.5104-332.8c3.456-7.9104 2.688-17.0496-2.048-24.2688s-12.8-11.5968-21.4272-11.5968L327.9616 239.9744l-22.4768-104.2176c-2.5344-11.776-12.9536-20.1984-25.0368-20.1984L76.8 115.5584c-14.1312 0-25.6 11.4688-25.6 25.6s11.4688 25.6 25.6 25.6l183.0144 0L376.32 707.0976c-41.5488 11.9808-72.2176 49.9456-72.2176 95.3088 0 54.9376 44.6976 99.6096 99.6096 99.6096s99.6096-44.6976 99.6096-99.6096c0-17.8432-5.0944-34.3552-13.3376-48.8448l198.2976 0c-8.2432 14.4896-13.3376 31.0016-13.3376 48.8448 0 54.9376 44.6976 99.6096 99.6096 99.6096s99.6096-44.6976 99.6096-99.6096-44.6976-99.6096-99.6096-99.6096c-2.176 0-4.1984 0.512-6.3232 0.64L427.2128 703.4368c-0.0768-1.152 0.2048-2.2528-0.0512-3.4304l-16.384-76.0064 391.1168 0C812.0832 624 821.2736 617.984 825.3696 608.64zM403.712 863.616c-33.7408 0-61.2096-27.4688-61.2096-61.2096s27.4688-61.2096 61.2096-61.2096 61.2096 27.4688 61.2096 61.2096S437.4528 863.616 403.712 863.616zM835.7632 802.4064c0 33.7408-27.4688 61.2096-61.2096 61.2096s-61.2096-27.4688-61.2096-61.2096 27.4688-61.2096 61.2096-61.2096S835.7632 768.6656 835.7632 802.4064zM404.5568 572.8l-64.9984-281.6 568.6784 0-123.1104 281.6L404.5568 572.8z" p-id="2777" fill="#ff6700"></path></svg>