<?xml version="1.0" standalone="no"?><!DOCTYPE svg PUBLIC "-//W3C//DTD SVG 1.1//EN" "http://www.w3.org/Graphics/SVG/1.1/DTD/svg11.dtd"><svg t="1487671437213" class="icon" style="" viewBox="0 0 1024 1024" version="1.1" xmlns="http://www.w3.org/2000/svg" p-id="2010" xmlns:xlink="http://www.w3.org/1999/xlink" width="200" height="200"><defs><style type="text/css"></style></defs><path d="M433.344 472.576 99.392 472.576c-10.688 0-19.392-8.704-19.392-19.392L80 124.352c0-10.688 8.704-19.392 19.392-19.392l334.016 0c10.688 0 19.392 8.704 19.392 19.392l0 328.832C452.736 463.936 444.032 472.576 433.344 472.576zM118.72 433.792l295.232 0L413.952 143.808 118.72 143.808 118.72 433.792z" p-id="2011" fill="#999999"></path><path d="M433.344 921.408 99.392 921.408c-10.688 0-19.392-8.704-19.392-19.456L80 573.312c0-10.752 8.704-19.392 19.392-19.392l334.016 0c10.688 0 19.392 8.64 19.392 19.392l0 328.704C452.736 912.768 444.032 921.408 433.344 921.408zM118.72 882.624l295.232 0L413.952 592.768 118.72 592.768 118.72 882.624z" p-id="2012" fill="#999999"></path><path d="M876.16 472.576 542.272 472.576c-10.752 0-19.392-8.704-19.392-19.392L522.88 124.352c0-10.688 8.64-19.392 19.392-19.392l333.952 0c10.752 0 19.392 8.704 19.392 19.392l0 328.832C895.552 463.936 886.912 472.576 876.16 472.576zM561.664 433.792l295.104 0L856.768 143.808 561.664 143.808 561.664 433.792z" p-id="2013" fill="#999999"></path><path d="M698.112 923.648c-106.496 0-193.088-86.592-193.088-192.96 0-106.56 86.592-193.152 193.088-193.152 106.368 0 193.024 86.592 193.024 193.152C891.136 837.056 804.48 923.648 698.112 923.648zM698.112 576.32c-85.12 0-154.368 69.312-154.368 154.368 0 84.864 69.248 154.176 154.368 154.176 84.928 0 154.24-69.312 154.24-154.176C852.352 645.632 783.04 576.32 698.112 576.32z" p-id="2014" fill="#999999"></path><path d="M908.8 952c-4.672 0-9.472-1.6-13.312-5.184l-85.952-81.344c-7.744-7.296-8.128-19.712-0.832-27.392 7.36-7.808 19.712-8.192 27.392-0.768l86.08 81.28c7.808 7.424 8.064 19.712 0.768 27.52C919.168 950.016 914.048 952 908.8 952z" p-id="2015" fill="#999999"></path></svg>
