<?xml version="1.0" standalone="no"?><!DOCTYPE svg PUBLIC "-//W3C//DTD SVG 1.1//EN" "http://www.w3.org/Graphics/SVG/1.1/DTD/svg11.dtd"><svg t="1487671518987" class="icon" style="" viewBox="0 0 1024 1024" version="1.1" xmlns="http://www.w3.org/2000/svg" p-id="3538" xmlns:xlink="http://www.w3.org/1999/xlink" width="200" height="200"><defs><style type="text/css"></style></defs><path d="M887.17424 814.294884c-21.201881-84.527139-95.964632-158.173462-95.964632-158.173462C724.816478 587.217099 641.125381 562.667983 641.125381 562.667983c-2.565429-0.895393-5.136997-1.739621-7.710612-2.562359 83.867106-43.644009 141.14974-131.337257 141.14974-232.41842C774.564509 183.068456 657.328411 65.832358 512.70864 65.832358c-144.618748 0-261.854846 117.237121-261.854846 261.854846 0 101.621469 57.887408 189.719946 142.485155 233.123478-5.366218 1.469468-8.303106 2.413979-8.303106 2.413979-65.835428 18.412348-132.22958 75.599815-132.22958 75.599815C115.263675 757.797126 120.85502 927.275052 120.85502 927.275052c-0.557702 6.417153 1.115404 26.501584 24.827455 26.780947 23.712051 0.278339 25.943882-21.759583 25.943882-21.759583 1.115404-43.797505 8.090259-73.367985 8.090259-73.367985 19.527752-96.242971 88.711438-164.867932 88.711438-164.867932 72.809259-71.694879 151.757333-89.26914 151.757333-89.26914 75.042113-20.363793 132.787282-10.599406 132.787282-10.599406 114.65532 18.411325 169.890318 70.019727 169.890318 70.019727 92.337012 70.02075 117.164466 173.516916 117.164466 173.516916 11.716856 27.89635 13.390985 96.521311 13.390985 96.521311 0.557702 3.068895 4.462638 21.759583 27.338648 19.527752s23.154349-22.317285 23.154349-22.317285C904.748501 862.835414 887.17424 814.294884 887.17424 814.294884zM307.762921 327.687204c0-113.188922 91.75782-204.945719 204.945719-204.945719 113.189945 0 204.945719 91.756797 204.945719 204.945719 0 113.188922-91.755774 204.945719-204.945719 204.945719C399.520741 532.632923 307.762921 440.876126 307.762921 327.687204z" p-id="3539" fill="#999999"></path></svg>
